<svg id="visual" viewBox="0 0 540 960" width="540" height="960" xmlns="http://www.w3.org/2000/svg" xmlns:xlink="http://www.w3.org/1999/xlink" version="1.1"><rect x="0" y="0" width="540" height="960" fill="#001220"></rect><defs><linearGradient id="grad1_0" x1="0%" y1="0%" x2="100%" y2="100%"><stop offset="30%" stop-color="#001220" stop-opacity="1"></stop><stop offset="70%" stop-color="#001220" stop-opacity="1"></stop></linearGradient></defs><defs><linearGradient id="grad2_0" x1="0%" y1="0%" x2="100%" y2="100%"><stop offset="30%" stop-color="#001220" stop-opacity="1"></stop><stop offset="70%" stop-color="#001220" stop-opacity="1"></stop></linearGradient></defs><g transform="translate(540, 0)"><path d="M0 297C-42.1 296.8 -84.2 296.6 -113.7 274.4C-143.1 252.1 -159.8 207.8 -174.7 174.7C-189.5 141.5 -202.6 119.5 -222.7 92.2C-242.7 65 -269.9 32.5 -297 0L0 0Z" fill="#0066ff"></path></g><g transform="translate(0, 960)"><path d="M0 -297C36.3 -289.4 72.7 -281.8 111.7 -269.8C150.8 -257.7 192.6 -241.2 210 -210C227.4 -178.9 220.5 -133.1 231 -95.7C241.4 -58.2 269.2 -29.1 297 0L0 0Z" fill="#0066ff"></path></g></svg>